<?xml version="1.0" standalone="no"?><!DOCTYPE svg PUBLIC "-//W3C//DTD SVG 1.1//EN" "http://www.w3.org/Graphics/SVG/1.1/DTD/svg11.dtd"><svg t="1657713315676" class="icon" viewBox="0 0 1024 1024" version="1.1" xmlns="http://www.w3.org/2000/svg" p-id="2494" xmlns:xlink="http://www.w3.org/1999/xlink" width="200" height="200"><defs><style type="text/css"></style></defs><path d="M762.742857 895.428571c-60.457143 4.457143-123.771429 6.742857-188.685714 6.742858-135.428571 0-259.885714-11.657143-360.114286-33.714286C149.714286 854.285714 63.428571 828.8 17.142857 787.428571L0 772.114286V198.742857l966.857143-72.342857 57.142857-4.571429-0.114286 209.485715v148L837.028571 854.4l-18.057142 36.342857-56.228572 4.685714z" fill="#25467A" p-id="2495"></path><path d="M934.628571 307.428571c0 18.628571 15.085714 33.714286 33.714286 33.714286 1.257143 0 2.742857-0.114286 4-0.342857v126.285714l-186.742857 374.857143V343.314286l186.857143-165.714286v96.228571c-1.257143-0.114286-2.628571-0.342857-4-0.342857-18.628571 0.114286-33.828571 15.314286-33.828572 33.942857z" fill="#D18D1F" p-id="2496"></path><path d="M786.628571 250.285714l-1.028571 93.028572v498.628571c-64.571429 5.6-136.342857 8.8-211.542857 8.8-288.685714 0-467.885714-52.8-522.628572-101.714286V452.8c11.885714-5.714286 20-17.828571 20-31.885714 0-14.057143-8.228571-26.171429-20-31.885715V250.171429l735.2 0.114285z" fill="#FBC02D" p-id="2497"></path><path d="M785.714286 343.314286c-64.571429 5.6-136.342857 8.571429-211.542857 8.571428-288.685714 0-468.914286-59.771429-522.628572-101.714285L972.571429 177.485714 785.714286 343.314286z" fill="#FDD835" p-id="2498"></path><path d="M703.542857 786.628571m-33.714286 0a33.714286 33.714286 0 1 0 67.428572 0 33.714286 33.714286 0 1 0-67.428572 0Z" fill="#D18D1F" p-id="2499"></path><path d="M146.514286 356.571429m-35.314286 0a35.314286 35.314286 0 1 0 70.628571 0 35.314286 35.314286 0 1 0-70.628571 0Z" fill="#D18D1F" p-id="2500"></path><path d="M136.342857 720.457143m-35.314286 0a35.314286 35.314286 0 1 0 70.628572 0 35.314286 35.314286 0 1 0-70.628572 0Z" fill="#D18D1F" p-id="2501"></path><path d="M784.114286 740.8m-22.057143 0a22.057143 22.057143 0 1 0 44.114286 0 22.057143 22.057143 0 1 0-44.114286 0Z" fill="#D18D1F" p-id="2502"></path><path d="M756.457143 417.485714m-46.742857 0a46.742857 46.742857 0 1 0 93.485714 0 46.742857 46.742857 0 1 0-93.485714 0Z" fill="#D18D1F" p-id="2503"></path><path d="M274.057143 278.628571a48 18.285714 0 1 0 96 0 48 18.285714 0 1 0-96 0Z" fill="#E3AA1E" p-id="2504"></path><path d="M425.371429 313.6a26.4 10.057143 0 1 0 52.8 0 26.4 10.057143 0 1 0-52.8 0Z" fill="#E3AA1E" p-id="2505"></path><path d="M592.8 259.314286a67.657143 25.828571 0 1 0 135.314286 0 67.657143 25.828571 0 1 0-135.314286 0Z" fill="#E3AA1E" p-id="2506"></path><path d="M798.285714 293.714286a53.942857 25.828571 0 1 0 107.885715 0 53.942857 25.828571 0 1 0-107.885715 0Z" fill="#D18D1F" p-id="2507"></path><path d="M848.342857 495.2a33.714286 21.714286 90 1 0 43.428572 0 33.714286 21.714286 90 1 0-43.428572 0Z" fill="#AB7319" p-id="2508"></path><path d="M815.428571 640.914286a22.742857 14.514286 90 1 0 29.028572 0 22.742857 14.514286 90 1 0-29.028572 0Z" fill="#AB7319" p-id="2509"></path><path d="M419.542857 675.542857c-35.314286 0-64-28.685714-64-64 0-7.085714 5.714286-12.8 12.8-12.8 7.085714 0 12.8 5.714286 12.8 12.8 0 21.257143 17.257143 38.4 38.4 38.4s38.4-17.142857 38.4-38.4c0-7.085714 5.714286-12.8 12.8-12.8s12.8 5.714286 12.8 12.8c0 35.428571-28.685714 64-64 64z" fill="#25467A" p-id="2510"></path><path d="M291.542857 509.142857m-38.4 0a38.4 38.4 0 1 0 76.8 0 38.4 38.4 0 1 0-76.8 0Z" fill="#25467A" p-id="2511"></path><path d="M509.142857 509.142857a38.4 38.4 0 1 0 76.8 0 38.4 38.4 0 1 0-76.8 0Z" fill="#25467A" p-id="2512"></path><path d="M240.342857 573.142857h-51.2c-14.171429 0-25.6 11.428571-25.6 25.6 0 14.171429 11.428571 25.6 25.6 25.6h51.2c14.171429 0 25.6-11.428571 25.6-25.6 0-14.057143-11.428571-25.485714-25.6-25.6zM649.942857 573.142857h-51.2c-14.171429 0-25.6 11.428571-25.6 25.6 0 14.171429 11.428571 25.6 25.6 25.6h51.2c14.171429 0 25.6-11.428571 25.6-25.6 0-14.057143-11.428571-25.485714-25.6-25.6z" fill="#FFF59D" p-id="2513"></path></svg>