<?xml version="1.0" standalone="no"?><!DOCTYPE svg PUBLIC "-//W3C//DTD SVG 1.1//EN" "http://www.w3.org/Graphics/SVG/1.1/DTD/svg11.dtd"><svg t="1657713505675" class="icon" viewBox="0 0 1024 1024" version="1.1" xmlns="http://www.w3.org/2000/svg" p-id="2851" xmlns:xlink="http://www.w3.org/1999/xlink" width="200" height="200"><defs><style type="text/css"></style></defs><path d="M512 1023.999166A512.125297 512.125297 0 0 1 312.743019 40.251396 512.113868 512.113868 0 0 1 711.314123 983.736341 508.891014 508.891014 0 0 1 512 1023.999166z m0-601.142368a89.142785 89.142785 0 1 0 89.142785 89.142785 89.245642 89.245642 0 0 0-89.142785-89.142785z" fill="#25467A" p-id="2852"></path><path d="M975.999622 511.999583c0 256.25122-207.736974 463.999622-463.999622 463.999622S48.000378 768.250803 48.000378 511.999583 255.74878 47.999961 512 47.999961s463.999622 207.736974 463.999622 463.999622zM512 374.856837a137.142745 137.142745 0 1 0 137.142745 137.142746 137.142745 137.142745 0 0 0-137.142745-137.142746z" fill="#FFCC80" p-id="2853"></path><path d="M623.657052 954.993508c-38.765683 0-64.811376-20.068555-86.605644-23.177124-35.154257-5.00571-35.782828 22.937124-122.148472 7.999993-42.04568-7.257137-24.651408-29.005691-78.297079-39.154254-14.354274-2.708569-36.468542-23.222838-89.508498-49.142817-34.674257-16.937129-64.571376-36.731399-88.879928-58.845666-36.331399-32.98283-60.697093-71.325656-72.434227-113.874193-18.479985-67.039945 3.051426-116.091334 15.919987-145.405596 8.571422-19.531413 14.239988-32.434259 14.78856-61.165664 0.434285-22.582839-2.788569-35.737114-6.857137-52.399958-7.417137-30.171404-19.748555-80.67422 10.914276-140.022743 33.22283-64.194233 87.119929-82.58279 122.788472-94.754208 20.319983-6.925709 41.337109-14.091417 70.228514-31.622832 26.457121-16.068558 39.371396-28.445691 53.039957-41.554251 22.857124-21.908554 57.394239-55.028527 121.05133-63.851377 29.337119-4.068568 55.222812-1.622856 83.93136 7.931422 18.868556 6.285709 37.839969 15.165702 69.268515 29.874262 16.628558 7.794279 37.314255 17.4857 63.417091 29.32569 24.537123 11.13142 44.708535 20.022841 60.914236 27.165692 33.428544 14.719988 53.611385 23.611409 71.382799 34.285686 28.45712 17.017129 48.857103 37.999969 64.228519 66.011375 32.651402 59.542809 23.337124 110.411339 17.759986 140.799885-3.09714 16.959986-4.045711 22.068553-0.662857 34.148544 3.302854 11.805705 7.211423 16.868558 16.651415 29.097119 17.462843 22.639982 49.965674 64.77709 45.30282 131.428465a168.571291 168.571291 0 0 1-33.965686 90.994211c-13.371418 17.714271-28.205691 31.051403-43.908536 45.142821-12.891418 11.657133-27.508549 24.822837-45.234249 43.862821-32.868545 35.428543-50.137102 62.697092-65.359946 86.857072-12.742847 20.159984-24.777123 39.199968-42.28568 57.142811-26.62855 27.337121-38.674254 35.999971-76.182795 42.20568-10.137135 1.599999-40.171396 10.697134-49.257103 10.697134zM333.737288 562.102399a75.999938 75.999938 0 0 0 46.639962 90.114212c29.897118 11.302848 107.919912 38.765683 115.72562 41.142824 26.925692 8.297136 104.399915 1.439999 136.514175-22.045696 20.171412-14.754274 33.074259-43.359965 56.685668-68.777087q6.342852-6.857137 12.285704-12.937132a61.142807 61.142807 0 0 0 11.634276-68.045659 291.428334 291.428334 0 0 1-15.439987-42.434251 280.388343 280.388343 0 0 1-10.422849-65.245661 92.651353 92.651353 0 0 0-54.68567-80.742792c-36.834256-16.639986-79.222793-35.839971-88.754213-40.29711l-0.251428-0.114285a39.268539 39.268539 0 0 0-42.514251 5.999995 487.38246 487.38246 0 0 1-69.005659 50.102816c-16.13713 9.794278-31.119975 17.817128-44.879963 24.47998a76.159938 76.159938 0 0 0-42.765679 72.674227c0.514285 9.508564 8.26285 37.805683 7.999993 48.742817-0.605714 34.045687-12.765704 44.148535-18.765699 67.382802z" fill="#FFD1E1" p-id="2854"></path><path d="M512 340.571151c-94.525637 0-171.428432 76.902794-171.428432 171.428432s76.902794 171.428432 171.428432 171.428432 171.428432-76.902794 171.428432-171.428432-76.902794-171.428432-171.428432-171.428432z m0 308.571177a137.142745 137.142745 0 1 1 137.142745-137.142745 137.142745 137.142745 0 0 1-137.142745 137.142745z" fill="#B55408" p-id="2855"></path><path d="M507.577146 977.084918zM511.337143 977.084918z" fill="#EFEBE9" p-id="2856"></path><path d="M507.577146 977.084918zM511.051429 977.084918z" fill="#D7CCC8" p-id="2857"></path><path d="M507.577146 977.084918zM511.051429 977.084918z" fill="#EFEBE9" p-id="2858"></path><path d="M509.314288 912.044971a69.279944 69.279944 0 0 1-69.188515-69.222801 13.851417 13.851417 0 0 1 27.679977-0.834285v0.834285a41.519966 41.519966 0 0 0 83.028504 0 13.839989 13.839989 0 1 1 27.668549-0.834285v0.834285a69.268515 69.268515 0 0 1-69.188515 69.222801zM329.383006 732.136546a41.519966 41.519966 0 0 0 83.028504 0.057143v-0.057143a41.519966 41.519966 0 0 0-83.028504 0zM606.148495 732.136546a41.519966 41.519966 0 1 0 83.028504 0.08v-0.08a41.519966 41.519966 0 0 0-83.028504 0z" fill="#25467A" p-id="2859"></path><path d="M315.554446 801.33649h-55.291384a27.679977 27.679977 0 0 0 0 55.348526h55.382812a27.679977 27.679977 0 1 0 0-55.348526h-0.091428z m442.811068 0h-55.359955a27.679977 27.679977 0 0 0 0 55.348526h55.359955a27.679977 27.679977 0 0 0 0-55.348526z" fill="#F06292" p-id="2860"></path><path d="M288.754468 222.136962m-31.428546 0a31.428546 31.428546 0 1 0 62.857091 0 31.428546 31.428546 0 1 0-62.857091 0Z" fill="#F06292" p-id="2861"></path><path d="M787.542633 277.23406m-31.428546 0a31.428546 31.428546 0 1 0 62.857091 0 31.428546 31.428546 0 1 0-62.857091 0Z" fill="#F06292" p-id="2862"></path><path d="M857.131147 523.725288m-31.428545 0a31.428546 31.428546 0 1 0 62.857091 0 31.428546 31.428546 0 1 0-62.857091 0Z" fill="#F06292" p-id="2863"></path><path d="M207.497391 489.599601m-31.428546 0a31.428546 31.428546 0 1 0 62.857092 0 31.428546 31.428546 0 1 0-62.857092 0Z" fill="#F06292" p-id="2864"></path><path d="M584.617084 174.251287m-31.428546 0a31.428546 31.428546 0 1 0 62.857092 0 31.428546 31.428546 0 1 0-62.857092 0Z" fill="#F06292" p-id="2865"></path><path d="M912.239674 570.12525m-31.428546 0a31.428546 31.428546 0 1 0 62.857092 0 31.428546 31.428546 0 1 0-62.857092 0Z" fill="#FFF176" p-id="2866"></path><path d="M158.251717 558.525259m-31.428546 0a31.428546 31.428546 0 1 0 62.857092 0 31.428546 31.428546 0 1 0-62.857092 0Z" fill="#FFF176" p-id="2867"></path><path d="M358.342982 178.628426m-31.428545 0a31.428546 31.428546 0 1 0 62.857091 0 31.428546 31.428546 0 1 0-62.857091 0Z" fill="#FFF176" p-id="2868"></path><path d="M741.531242 349.108287m-31.428546 0a31.428546 31.428546 0 1 0 62.857091 0 31.428546 31.428546 0 1 0-62.857091 0Z" fill="#FFF176" p-id="2869"></path></svg>