<?xml version="1.0" standalone="no"?><!DOCTYPE svg PUBLIC "-//W3C//DTD SVG 1.1//EN" "http://www.w3.org/Graphics/SVG/1.1/DTD/svg11.dtd"><svg t="1657713090188" class="icon" viewBox="0 0 1024 1024" version="1.1" xmlns="http://www.w3.org/2000/svg" p-id="6440" xmlns:xlink="http://www.w3.org/1999/xlink" width="200" height="200"><defs><style type="text/css"></style></defs><path d="M800.571429 1024c-27.2 0-64.571429-4.114286-107.771429-8.8-56.914286-6.171429-121.485714-13.257143-180.8-13.257143-59.2 0-123.771429 7.085714-180.8 13.257143-43.314286 4.685714-80.685714 8.8-107.771429 8.8-23.657143 0-50.285714-2.742857-68.228571-22.628571-13.257143-14.742857-21.485714-34.742857-39.885714-154.628572-10.742857-69.714286-22.171429-157.6-32.342857-235.085714-11.314286-85.828571-21.942857-166.971429-27.314286-191.657143-3.771429-17.028571 0.342857-34.628571 11.314286-48.228571 0.914286-1.142857 1.828571-2.171429 2.742857-3.2-1.257143-4.685714-2.514286-9.371429-3.771429-13.942858-19.085714-67.428571-40.8-114.971429-47.085714-128-7.2-14.971429-7.085714-32 0.342857-46.742857 7.657143-15.314286 21.942857-26.171429 39.314286-29.714285l45.942857-9.371429c0.228571-2.742857 0.457143-5.142857 0.685714-7.314286 2.285714-21.942857 17.257143-40.457143 38.285714-48.342857 0.457143-8.914286 3.2-17.6 8.114286-25.371428 9.142857-14.514286 24.571429-23.885714 42.285714-25.714286l83.085715-8.228572c1.942857-0.228571 4-0.342857 5.942857-0.342857 7.428571 0 14.628571 1.371429 21.371428 3.885715 8.685714-5.714286 18.857143-8.914286 29.714286-9.257143l82.514286-2.285715h1.714286c19.885714 0 38.285714 10.171429 48.914285 25.714286 4.342857-1.485714 8.8-2.4 13.485715-2.742857l73.028571-6.4c2.4-6.057143 5.942857-11.771429 10.4-16.685714 10.285714-11.2 25.142857-17.6 40.8-17.6 3.2 0 6.285714 0.228571 9.485714 0.8l82.4 13.6c18.514286 3.085714 34.171429 14.628571 42.742857 30.285714 5.257143-1.485714 10.742857-2.171429 16.342858-2.171429 1.942857 0 4 0.114286 6.057142 0.342858l83.085715 8.228571c17.828571 1.714286 33.142857 11.085714 42.285714 25.714286 5.6 8.914286 8.342857 19.085714 8.114286 29.371428 11.2 8.342857 19.314286 20.457143 22.057143 34.4l48.457142 9.942857c17.371429 3.542857 31.771429 14.4 39.314286 29.714286 7.314286 14.857143 7.428571 31.885714 0.342857 46.742857-6.285714 13.028571-28 60.571429-47.085714 128-1.257143 4.685714-2.628571 9.257143-3.771429 13.942857 0.914286 1.028571 1.828571 2.057143 2.742858 3.2 10.971429 13.6 15.085714 31.2 11.314285 48.228572-5.485714 24.685714-16.114286 105.828571-27.314285 191.657143-10.171429 77.485714-21.714286 165.371429-32.342858 235.085714-18.4 119.885714-26.628571 139.885714-39.885714 154.628571-18.285714 19.428571-44.914286 22.171429-68.571428 22.171429z" fill="#25467A" p-id="6441"></path><path d="M416.457143 631.2L333.714286 606.171429c-4.114286-1.257143-6.742857-4.685714-5.942857-7.771429 36.457143-137.028571 34.857143-272.114286 26.971428-361.714286-7.2-82.285714-20.914286-142.285714-25.485714-160.685714-0.8-3.314286 1.828571-5.942857 5.828571-6.057143l82.514286-2.285714c4.114286-0.114286 8.228571 2.514286 9.142857 5.942857 4.914286 19.314286 19.428571 82.4 27.314286 170.514286 8.457143 94.971429 10.285714 238.171429-28.685714 384-0.685714 2.857143-4.8 4.342857-8.914286 3.085714zM534.4 651.428571l81.142857-34.628571c4-1.714286 6.4-5.485714 5.257143-8.457143-48.457143-132.228571-58.514286-266.857143-58.285714-357.142857 0.228571-82.742857 8.8-144.228571 11.771428-162.971429 0.571429-3.314286-2.285714-5.714286-6.4-5.371428l-83.2 7.314286c-4.228571 0.342857-8.114286 3.542857-8.685714 6.971428-3.2 19.771429-12.457143 84.342857-12.8 172.914286-0.342857 95.542857 10.171429 238.4 61.828571 379.2 1.142857 2.857143 5.371429 3.885714 9.371429 2.171428z" fill="#F5A816" p-id="6442"></path><path d="M460.571429 675.542857L382.057143 646.857143c-4.571429-1.714286-7.314286-5.828571-6.171429-9.257143 43.657143-134.514286 49.714286-269.028571 47.085715-358.857143-2.4-80.685714-12.228571-140.457143-15.771429-160.457143-0.685714-3.885714 2.628571-6.857143 7.542857-6.514285l78.514286 5.942857c4.457143 0.342857 8.571429 3.428571 9.371428 7.085714 4.114286 19.085714 15.657143 78.971429 18.514286 166.4 2.971429 95.085714-3.314286 237.714286-49.942857 380.914286-1.371429 3.657143-6.057143 5.028571-10.628571 3.428571z" fill="#F8CE53" p-id="6443"></path><path d="M596.457143 619.314286l-78.285714-40.685715c-3.885714-2.057143-5.942857-5.942857-4.685715-8.8 58.4-128.114286 78.514286-261.714286 85.142857-351.657142 6.057143-82.514286 2.171429-144.457143 0.571429-163.428572-0.228571-3.428571 2.742857-5.6 6.742857-4.914286l82.4 13.6c4.114286 0.685714 7.771429 4.114286 8.114286 7.542858 1.714286 20 6.057143 85.028571-0.342857 173.371428-6.857143 95.314286-28.228571 236.914286-90.4 373.371429-1.142857 2.857143-5.371429 3.542857-9.257143 1.6z" fill="#F5A816" p-id="6444"></path><path d="M537.828571 680.8l-63.885714-29.257143c-3.657143-1.714286-5.714286-5.828571-4.457143-9.142857 49.142857-131.542857 66.285714-263.542857 72.114286-351.657143 5.257143-79.314286 2.285714-138.171429 1.028571-157.828571-0.228571-3.885714 2.857143-6.742857 6.971429-6.285715l65.942857 7.085715c3.771429 0.457143 6.971429 3.542857 7.314286 7.085714 1.828571 18.857143 6.171429 77.828571 0.685714 163.657143-6.057143 93.371429-24.228571 233.485714-76.571428 373.371428-1.371429 3.428571-5.371429 4.685714-9.142858 2.971429z" fill="#F8CE53" p-id="6445"></path><path d="M788.228571 675.314286l85.485715-7.428572c4.228571-0.342857 7.428571-2.971429 7.085714-5.828571-14.628571-126.171429 8-243.885714 29.828571-320.914286 20-70.628571 42.742857-120.685714 50.057143-136 1.257143-2.742857-0.8-5.485714-4.8-6.285714l-80.914285-16.571429c-4.114286-0.8-8.571429 0.8-9.942858 3.542857-7.771429 16-32 68.571429-53.485714 144.228572-23.2 81.485714-47.2 206.4-31.657143 340.685714 0.228571 2.971429 4 4.914286 8.342857 4.571429z" fill="#F5A816" p-id="6446"></path><path d="M718.171429 591.428571l85.257142-16c4.228571-0.8 7.085714-3.657143 6.514286-6.514285-27.085714-124.114286-16-243.542857-1.714286-322.4 13.142857-72.342857 31.085714-124.457143 37.028572-140.342857 1.028571-2.857143-1.371429-5.371429-5.485714-5.828572l-83.085715-8.228571c-4.228571-0.457143-8.457143 1.6-9.6 4.571428-6.285714 16.8-25.485714 71.428571-39.542857 148.914286-15.2 83.428571-27.2 210.171429 1.828572 342.171429 0.571429 2.742857 4.571429 4.342857 8.8 3.657142z" fill="#F5A816" p-id="6447"></path><path d="M790.514286 634.514286L714.171429 602.285714c-4.457143-1.828571-6.857143-5.714286-5.6-8.685714 52.457143-115.314286 67.428571-233.942857 70.628571-313.6 2.971429-71.657143-2.857143-125.485714-5.142857-143.428571-0.457143-3.542857 3.085714-5.828571 7.885714-5.142858l77.714286 12.114286c4.457143 0.685714 8.228571 3.771429 8.8 7.085714 2.857143 17.257143 10.4 71.314286 7.314286 148.914286-3.314286 84.457143-19.085714 210.285714-74.971429 333.028572-1.142857 2.971429-5.942857 3.771429-10.285714 1.942857z" fill="#F8CE53" p-id="6448"></path><path d="M674.057143 650.742857l67.428571-14.4c3.885714-0.8 6.514286-4.114286 5.714286-7.2-27.885714-123.542857-24.228571-241.942857-16.228571-320 7.2-70.171429 19.2-121.142857 23.542857-138.057143 0.8-3.314286-1.828571-6.4-5.828572-6.742857l-65.942857-5.371428c-3.771429-0.342857-7.314286 1.828571-8.228571 4.914285-4.685714 16.114286-18.285714 66.971429-26.171429 142.971429-8.571429 82.628571-12.571429 208.228571 17.142857 339.771428 0.8 2.971429 4.685714 4.914286 8.571429 4.114286z" fill="#F8CE53" p-id="6449"></path><path d="M235.771429 675.314286l-85.485715-7.428572c-4.228571-0.342857-7.428571-2.971429-7.085714-5.828571 14.628571-126.171429-8-243.885714-29.828571-320.914286-20-70.628571-42.742857-120.685714-50.057143-136-1.257143-2.742857 0.8-5.485714 4.8-6.285714l80.914285-16.571429c4.114286-0.8 8.571429 0.8 9.942858 3.542857 7.771429 16 32 68.571429 53.485714 144.228572 23.2 81.485714 47.2 206.4 31.657143 340.685714-0.228571 2.971429-4 4.914286-8.342857 4.571429z" fill="#F5A816" p-id="6450"></path><path d="M320.114286 574.514286l-85.257143-16c-4.228571-0.8-7.085714-3.657143-6.514286-6.514286 27.085714-124.114286 16-243.542857 1.714286-322.4-13.028571-72.228571-31.085714-124.342857-36.914286-140.342857-1.028571-2.857143 1.371429-5.371429 5.485714-5.828572l83.085715-8.228571c4.228571-0.457143 8.457143 1.6 9.6 4.571429 6.285714 16.8 25.485714 71.428571 39.542857 148.914285 15.2 83.428571 27.2 210.171429-1.828572 342.171429-0.685714 2.857143-4.685714 4.457143-8.914285 3.657143z" fill="#F5A816" p-id="6451"></path><path d="M261.028571 617.142857l74.285715-36.685714c4.342857-2.171429 6.514286-6.171429 5.028571-9.028572-59.2-112-81.142857-229.485714-89.142857-308.914285-7.2-71.428571-4.685714-125.371429-3.428571-143.542857 0.228571-3.542857-3.428571-5.714286-8.228572-4.685715l-76.914286 16.685715c-4.342857 0.914286-8 4.228571-8.342857 7.542857-1.828571 17.485714-6.171429 71.771429 1.485715 149.142857 8.342857 84.114286 31.542857 208.685714 94.628571 328 1.6 2.971429 6.285714 3.657143 10.628571 1.485714z" fill="#F8CE53" p-id="6452"></path><path d="M364.228571 633.828571l-67.428571-14.4c-3.885714-0.8-6.514286-4.114286-5.714286-7.2 27.885714-123.542857 24.228571-241.942857 16.228572-320-7.2-70.171429-19.2-121.142857-23.542857-138.057142-0.8-3.314286 1.828571-6.4 5.828571-6.742858l65.942857-5.371428c3.771429-0.342857 7.314286 1.828571 8.228572 4.914286 4.685714 16.114286 18.285714 66.971429 26.171428 142.971428 8.571429 82.628571 12.571429 208.228571-17.142857 339.771429-0.8 3.085714-4.571429 4.914286-8.571429 4.114285z" fill="#F8CE53" p-id="6453"></path><path d="M591.314286 889.371429l86.057143-23.428572c4.228571-1.142857 7.2-4.571429 6.514285-7.657143-30.057143-137.6-21.257143-272.457143-8.457143-361.942857 11.771429-82.057143 28.914286-141.714286 34.514286-160 1.028571-3.2-1.485714-5.942857-5.6-6.171428l-84.342857-4c-4.228571-0.228571-8.571429 2.4-9.6 5.714285-5.942857 19.2-24.228571 81.942857-37.028571 169.714286-13.714286 94.742857-23.085714 237.714286 8.914285 384.228571 0.685714 3.085714 4.685714 4.685714 9.028572 3.542858zM359.314286 762.628571l86.057143-23.428571c4.228571-1.142857 7.2-4.571429 6.514285-7.657143-30.057143-137.6-21.257143-272.457143-8.457143-361.942857 11.771429-82.057143 28.914286-141.714286 34.514286-160 1.028571-3.2-1.485714-5.942857-5.6-6.171429l-84.342857-4c-4.228571-0.228571-8.571429 2.4-9.6 5.714286-5.942857 19.2-24.228571 81.942857-37.028571 169.714286-13.714286 94.742857-23.085714 237.714286 8.914285 384.228571 0.685714 3.085714 4.685714 4.685714 9.028572 3.542857z" fill="#F6BE1A" p-id="6454"></path><path d="M475.885714 831.428571L397.6 790.857143c-3.885714-2.057143-5.942857-5.942857-4.685714-8.8 58.4-128.114286 78.514286-261.714286 85.142857-351.657143 6.057143-82.514286 2.171429-144.457143 0.571428-163.428571-0.228571-3.428571 2.742857-5.6 6.742858-4.914286l82.4 13.6c4.114286 0.685714 7.771429 4.114286 8.114285 7.542857 1.714286 20 6.057143 85.028571-0.342857 173.371429-6.857143 95.314286-28.228571 236.914286-90.4 373.371428-1.028571 2.857143-5.371429 3.542857-9.257143 1.485714zM290.285714 811.771429l73.6-29.6c3.657143-1.485714 5.828571-5.028571 4.8-8.114286-44.457143-133.6-53.942857-267.542857-54.057143-356.8-0.114286-81.942857 7.542857-142.171429 10.171429-160.685714 0.457143-3.314286-2.057143-5.828571-5.828571-5.714286l-75.542858 2.4c-3.771429 0.114286-7.314286 2.971429-7.885714 6.4-2.857143 19.428571-11.085714 82.742857-11.085714 170.4 0 94.628571 9.942857 236.571429 57.257143 378.742857 1.028571 3.2 4.914286 4.457143 8.571428 2.971429zM780.8 781.942857l-85.028571-28.571428c-4.228571-1.371429-6.971429-5.028571-6.057143-8.114286 38.057143-135.542857 36.914286-270.857143 29.257143-360.914286-7.085714-82.628571-20.914286-143.314286-25.485715-161.828571-0.8-3.314286 1.828571-5.942857 6.057143-5.828572l84.8 1.142857c4.228571 0 8.457143 2.857143 9.371429 6.285715 4.914286 19.542857 19.657143 83.2 27.428571 171.657143 8.342857 95.428571 9.6 238.742857-30.971428 383.085714-0.914286 3.085714-5.028571 4.457143-9.371429 3.085714z" fill="#F6BE1A" p-id="6455"></path><path d="M912.114286 400.228571l-35.771429 1.828572c-4.114286 0.228571-8.114286 1.714286-11.428571 4.342857-28.342857 22.971429-109.142857 96.685714-352.914286 96.685714s-324.571429-73.714286-352.914286-96.685714c-3.2-2.628571-7.2-4.114286-11.428571-4.342857l-35.771429-1.828572c-5.028571-0.228571-8.914286 4.342857-7.885714 9.257143 16.114286 73.142857 65.142857 533.371429 88 558.628572 18.4 20.457143 182.285714-15.885714 320-15.885715s301.6 36.228571 320 15.885715c22.742857-25.257143 71.885714-485.6 88-558.628572 1.028571-4.914286-2.857143-9.6-7.885714-9.257143z" fill="#E53935" p-id="6456"></path><path d="M920 409.371429c-16.114286 73.142857-65.257143 533.371429-88 558.628571-4.457143 5.028571-17.714286 6.628571-37.142857 6.171429 19.2-73.028571 52.342857-442.514286 68.114286-566.171429l2.057142-1.714286c3.2-2.628571 7.2-4.114286 11.428572-4.342857l35.771428-1.828571c4.914286-0.114286 8.8 4.457143 7.771429 9.257143zM229.257143 974.285714c-19.428571 0.457143-32.685714-1.142857-37.142857-6.171428-22.742857-25.257143-71.885714-485.6-88-558.628572-1.028571-4.914286 2.857143-9.485714 7.885714-9.257143l35.771429 1.828572c4.114286 0.228571 8.114286 1.714286 11.428571 4.342857l2.057143 1.714286c15.657143 123.657143 48.8 493.028571 68 566.171428z" fill="#D32F2F" p-id="6457"></path><path d="M512 822.742857c-35.314286 0-64-28.685714-64-64 0-7.085714 5.714286-12.8 12.8-12.8 7.085714 0 12.8 5.714286 12.8 12.8 0 21.257143 17.257143 38.4 38.4 38.4s38.4-17.142857 38.4-38.4c0-7.085714 5.714286-12.8 12.8-12.8s12.8 5.714286 12.8 12.8c0 35.428571-28.685714 64-64 64z" fill="#25467A" p-id="6458"></path><path d="M384 656.342857m-38.4 0a38.4 38.4 0 1 0 76.8 0 38.4 38.4 0 1 0-76.8 0Z" fill="#25467A" p-id="6459"></path><path d="M640 656.342857m-38.4 0a38.4 38.4 0 1 0 76.8 0 38.4 38.4 0 1 0-76.8 0Z" fill="#25467A" p-id="6460"></path><path d="M332.8 720.342857h-51.2c-14.171429 0-25.6 11.428571-25.6 25.6 0 14.171429 11.428571 25.6 25.6 25.6h51.2c14.171429 0 25.6-11.428571 25.6-25.6 0-14.057143-11.428571-25.485714-25.6-25.6zM742.4 720.342857h-51.2c-14.171429 0-25.6 11.428571-25.6 25.6 0 14.171429 11.428571 25.6 25.6 25.6h51.2c14.171429 0 25.6-11.428571 25.6-25.6 0-14.057143-11.428571-25.485714-25.6-25.6z" fill="#FF8A80" p-id="6461"></path></svg>