<?xml version="1.0" standalone="no"?><!DOCTYPE svg PUBLIC "-//W3C//DTD SVG 1.1//EN" "http://www.w3.org/Graphics/SVG/1.1/DTD/svg11.dtd"><svg t="1657713483494" class="icon" viewBox="0 0 1024 1024" version="1.1" xmlns="http://www.w3.org/2000/svg" p-id="2676" xmlns:xlink="http://www.w3.org/1999/xlink" width="200" height="200"><defs><style type="text/css"></style></defs><path d="M485.257143 1024c-1.371429 0-2.628571 0-3.771429-0.114286-1.142857 0-2.4 0.114286-3.771428 0.114286-37.371429 0-71.657143-19.314286-91.885715-51.542857-10.742857-17.142857-15.085714-42.514286-14.971428-87.657143 0-20.685714 1.028571-42.857143 2.4-63.428571-50.742857-12.685714-92.914286-32.342857-125.6-58.514286-43.771429-35.085714-75.657143-82.4-94.857143-140.8-21.028571-63.771429-26.628571-140.8-16.457143-228.914286 18.514286-161.6 74.742857-275.314286 167.2-337.828571C385.257143 0 474.057143 0 512 0c12.914286 0 28.571429 0.228571 46.171429 1.6C605.371429 5.257143 624.8 33.142857 637.714286 51.542857c8.342857 12 16.228571 23.2 34.628571 35.771429 36.914286 25.257143 59.542857 30.171429 77.828572 34.057143 21.942857 4.8 52 11.314286 72.571428 48.342857 32.914286 59.2 54.742857 134.4 64.914286 223.542857 10.057143 88.114286 4.571429 165.142857-16.457143 228.914286-19.2 58.4-51.2 105.714286-94.857143 140.8-33.028571 26.514286-76.114286 46.4-128.114286 59.085714-20.342857 5.028571-40 8.457143-57.942857 10.742857 1.028571 18.057143 1.714286 37.142857 1.714286 54.857143-0.114286 43.428571-4.457143 68-14.971429 84.8-20.114286 32.228571-54.514286 51.542857-91.771428 51.542857z" fill="#25467A" p-id="2677"></path><path d="M520 652.457143c-12.457143-35.771429-38.514286-34.4-38.514286-34.4s-26.171429-1.257143-38.514285 34.4c-10.971429 31.657143-37.142857 261.6-16.571429 294.742857 20.685714 33.028571 55.085714 28.914286 55.085714 28.914286s34.4 4.114286 55.085715-28.914286c20.571429-33.142857-5.485714-263.085714-16.571429-294.742857z" fill="#FFCC80" p-id="2678"></path><path d="M506.171429 812.914286c-14.971429 0-54.857143-0.914286-100.8-9.828572-59.2-11.428571-106.971429-31.428571-142.057143-59.542857-39.885714-32-69.142857-75.428571-86.857143-129.142857-19.885714-60.342857-25.028571-133.828571-15.428572-218.285714 17.6-154.057143 70.171429-261.714286 156.342858-320.114286 75.428571-51.085714 158.857143-51.085714 194.514285-51.085714 13.371429 0 28.114286 0.228571 44.228572 1.485714 35.428571 2.742857 49.028571 22.285714 61.142857 39.428571 8.8 12.685714 18.857143 26.971429 40.914286 42.057143 40.914286 28 67.314286 33.714286 86.514285 37.828572 20.114286 4.342857 41.028571 8.914286 56.114286 36.114285 31.314286 56.457143 52.114286 128.457143 61.942857 214.171429 9.714286 84.571429 4.457143 157.942857-15.428571 218.285714-17.714286 53.714286-46.857143 97.142857-86.742857 129.028572-35.2 28.228571-83.2 48.228571-142.628572 59.657143-45.942857 8.8-85.714286 9.714286-100.685714 9.714285h-5.485714c-0.8 0.114286-2.742857 0.228571-5.6 0.228572z" fill="#25467A" p-id="2679"></path><path d="M840.228571 398.628571c-10.171429-89.371429-31.657143-156.114286-59.2-205.714285-21.028571-37.942857-50.171429-7.771429-135.542857-66.171429-56.228571-38.4-45.828571-74.057143-90.971428-77.6-16-1.257143-30.4-1.371429-42.4-1.371428-86.057143 0-289.142857 8.685714-328.228572 350.857142-19.885714 173.714286 26.971429 273.485714 93.828572 327.085715 85.714286 68.8 234.285714 64.228571 234.285714 64.228571s148.571429 4.457143 234.514286-64.342857c66.742857-53.485714 113.6-153.257143 93.714285-326.971429z" fill="#805542" p-id="2680"></path><path d="M746.514286 725.714286c-47.314286 37.942857-113.714286 53.6-163.771429 60 29.028571-10.514286 56.8-24 78.857143-40.914286 65.6-50.628571 88.685714-128 69.142857-292.228571-11.314286-94.971429-36.457143-162.742857-68.571428-211.085715 7.885714-1.142857 15.771429-2.857143 23.428571-5.028571 35.428571-10.4 68.114286-33.028571 82.971429-58.171429 4.571429 3.314286 8.571429 7.885714 12.342857 14.742857 27.542857 49.714286 49.028571 116.342857 59.2 205.714286 20 173.6-26.857143 273.371429-93.6 326.971429z" fill="#734C3B" p-id="2681"></path><path d="M782.857143 196.114286c-18.971429 26.857143-53.028571 49.828571-91.085714 60.914285-17.828571 5.142857-36.8 7.885714-56.457143 7.885715-40.685714 0-83.542857-11.314286-120.685715-31.885715-37.485714-20.8-65.257143-48.685714-78.285714-78.514285-2.742857-6.285714-9.257143-21.142857-10.857143-38.857143-2.4-25.028571 5.942857-45.942857 23.885715-60.457143 1.828571-1.485714 4-3.085714 6.4-4.571429 21.485714-2.514286 40.914286-2.742857 56.457142-2.742857 12.114286 0 26.514286 0.228571 42.4 1.371429 45.142857 3.542857 34.742857 39.085714 90.971429 77.6 85.371429 58.285714 114.514286 28.228571 135.657143 66.171428 0.342857 0.914286 0.914286 2.057143 1.6 3.085715z" fill="#FFE0B2" p-id="2682"></path><path d="M768.685714 178.171429c-14.857143 25.142857-47.657143 47.771429-82.971428 58.171428-90.857143 26.628571-201.828571-27.085714-229.485715-90.514286-4.685714-10.742857-22.057143-50.628571 6.742858-73.828571 20.228571-16.342857 60.457143-22.285714 105.6-20.228571 29.6 9.485714 27.428571 41.142857 76.914285 74.971428 70.057143 47.885714 102.171429 36.228571 123.2 51.428572z" fill="#9CCC65" p-id="2683"></path><path d="M450.857143 520.685714c-35.314286 0-64-28.685714-64-64 0-7.085714 5.714286-12.8 12.8-12.8s12.8 5.714286 12.8 12.8c0 21.257143 17.257143 38.4 38.4 38.4s38.4-17.142857 38.4-38.4c0-7.085714 5.714286-12.8 12.8-12.8s12.8 5.714286 12.8 12.8c0 35.428571-28.685714 64-64 64z" fill="#1C355C" p-id="2684"></path><path d="M322.857143 354.285714m-38.4 0a38.4 38.4 0 1 0 76.8 0 38.4 38.4 0 1 0-76.8 0Z" fill="#1C355C" p-id="2685"></path><path d="M566.709892 390.701295a38.4 38.4 0 1 0 24.283814-72.859703 38.4 38.4 0 1 0-24.283814 72.859703Z" fill="#1C355C" p-id="2686"></path><path d="M271.657143 418.285714h-51.2c-14.171429 0-25.6 11.428571-25.6 25.6s11.428571 25.6 25.6 25.6h51.2c14.171429 0 25.6-11.428571 25.6-25.6 0-14.057143-11.428571-25.485714-25.6-25.6zM681.257143 418.285714h-51.2c-14.171429 0-25.6 11.428571-25.6 25.6s11.428571 25.6 25.6 25.6h51.2c14.171429 0 25.6-11.428571 25.6-25.6 0-14.057143-11.428571-25.485714-25.6-25.6z" fill="#FFCC80" p-id="2687"></path><path d="M320.8 719.542857l-5.6-3.2c-3.771429-2.171429-5.142857-7.085714-2.971429-10.857143l25.714286-44.571428c2.171429-3.771429 7.085714-5.142857 10.857143-2.971429l5.6 3.2c3.771429 2.171429 5.142857 7.085714 2.971429 10.857143l-25.714286 44.571429c-2.057143 3.885714-6.971429 5.142857-10.857143 2.971428zM429.942857 664.114286l-5.6 3.2c-3.771429 2.171429-8.685714 0.914286-10.857143-2.971429l-25.714285-44.571428c-2.171429-3.771429-0.914286-8.685714 2.971428-10.857143l5.6-3.2c3.771429-2.171429 8.685714-0.914286 10.857143 2.971428l25.714286 44.571429c2.171429 3.771429 0.914286 8.685714-2.971429 10.857143zM471.657143 719.542857l-5.6-3.2c-3.771429-2.171429-5.142857-7.085714-2.971429-10.857143l25.714286-44.571428c2.171429-3.771429 7.085714-5.142857 10.857143-2.971429l5.6 3.2c3.771429 2.171429 5.142857 7.085714 2.971428 10.857143l-25.714285 44.571429c-2.171429 3.885714-7.085714 5.142857-10.857143 2.971428zM618.171429 719.542857l-5.6-3.2c-3.771429-2.171429-5.142857-7.085714-2.971429-10.857143l25.714286-44.571428c2.171429-3.771429 7.085714-5.142857 10.857143-2.971429l5.6 3.2c3.771429 2.171429 5.142857 7.085714 2.971428 10.857143l-25.714286 44.571429c-2.171429 3.885714-7.085714 5.142857-10.857142 2.971428zM580.8 664.114286l-5.6 3.2c-3.771429 2.171429-8.685714 0.914286-10.857143-2.971429l-25.714286-44.571428c-2.171429-3.771429-0.914286-8.685714 2.971429-10.857143l5.6-3.2c3.771429-2.171429 8.685714-0.914286 10.857143 2.971428l25.714286 44.571429c2.171429 3.771429 0.914286 8.685714-2.971429 10.857143zM279.2 664.114286l-5.6 3.2c-3.771429 2.171429-8.685714 0.914286-10.857143-2.971429l-25.714286-44.571428c-2.171429-3.771429-0.914286-8.685714 2.971429-10.857143l5.6-3.2c3.771429-2.171429 8.685714-0.914286 10.857143 2.971428l25.714286 44.571429c2.057143 3.771429 0.8 8.685714-2.971429 10.857143z" fill="#B37C64" p-id="2688"></path></svg>