<?xml version="1.0" standalone="no"?><!DOCTYPE svg PUBLIC "-//W3C//DTD SVG 1.1//EN" "http://www.w3.org/Graphics/SVG/1.1/DTD/svg11.dtd"><svg t="1657713524424" class="icon" viewBox="0 0 1024 1024" version="1.1" xmlns="http://www.w3.org/2000/svg" p-id="3032" xmlns:xlink="http://www.w3.org/1999/xlink" width="200" height="200"><defs><style type="text/css"></style></defs><path d="M878.971429 389.371429c5.6-30.514286 3.657143-58.742857-6.057143-84.342858-6.514286-17.142857-16.228571-32.457143-28.8-45.485714l49.142857-149.257143c7.771429-23.542857 5.942857-48.914286-4.914286-69.714285-9.714286-18.514286-25.714286-31.885714-45.028571-37.6C836.571429 1.028571 829.6 0 822.628571 0c-36.685714 0-69.485714 27.085714-79.657142 65.828571l-39.885715 152c-20 4.571429-38.628571 13.6-54.742857 26.971429-14.628571 12-26.857143 27.2-36.571428 45.142857l-12.342858-10.285714c-15.314286-12.8-34.742857-19.885714-54.742857-19.885714-12.228571 0-24.114286 2.628571-34.971428 7.428571-10.857143-4.914286-22.742857-7.428571-34.857143-7.428571-25.371429 0-49.142857 11.085714-65.485714 30.514285-11.542857 13.714286-18.285714 30.4-19.657143 48-6.514286 1.257143-12.914286 3.2-19.314286 5.828572-6.514286-4.228571-13.942857-7.771429-22.514286-10.285715-7.771429-2.285714-15.771429-3.428571-23.771428-3.428571-8.914286 0-17.714286 1.371429-26.4 4.114286-0.8-0.228571-1.485714-0.457143-2.285715-0.685715-6.4-1.942857-13.028571-2.857143-19.657142-2.857142-9.942857 0-19.771429 2.171429-28.685715 6.4-14.857143 2.057143-42.285714 10.971429-56.228571 48.342857-0.685714 1.142857-1.257143 2.4-1.942857 3.657143h-38.971429c-40.8 0-74.057143 33.257143-74.057143 74.057142 0 30.857143 18.971429 57.371429 45.828572 68.457143l87.771428 429.142857 0.228572 1.142858c2.742857 10.857143 10.285714 25.942857 30.857143 36.342857 10.514286 5.371429 24.114286 9.371429 42.742857 12.914285 46.285714 8.228571 123.2 12.571429 228.685714 12.571429s182.4-4.342857 228.457143-12.8c18.742857-3.428571 32.342857-7.542857 42.742857-12.914286 20.571429-10.4 28.114286-25.485714 30.857143-36.342857l0.228571-1.142857 87.771429-429.142857c26.857143-11.085714 45.828571-37.6 45.828571-68.457143 0-39.085714-30.4-71.2-68.914285-73.828571z" fill="#25467A" p-id="3033"></path><path d="M542.171429 451.885714c-1.942857 0-4-0.342857-6.171429-1.028571-8.114286-2.628571-15.085714-10.857143-23.085714-20.342857-10.171429-12-21.6-25.714286-34.285715-26.171429-32.457143-1.142857-49.942857 15.428571-64.114285 28.8-10.057143 9.485714-19.657143 18.514286-32 16.914286-16-2.171429-24.685714-16.228571-32.342857-28.571429-6.4-10.285714-12.457143-20-21.257143-22.628571-16.342857-4.8-35.428571 18.057143-48.457143 38.057143-2.628571 4-8 5.142857-12 2.514285s-5.142857-8-2.514286-12c9.942857-15.2 19.2-26.285714 28.571429-34.057142 13.485714-11.2 26.742857-14.971429 39.314285-11.2 15.2 4.457143 23.657143 18.057143 31.085715 30.057142 6.514286 10.514286 12.114286 19.542857 20 20.571429 4.228571 0.571429 10.514286-5.371429 17.828571-12.228571 14.742857-13.828571 36.914286-34.857143 76.571429-33.485715 20.342857 0.685714 35.085714 18.171429 46.971428 32.342857 5.142857 6.171429 11.657143 13.828571 15.085715 14.971429 4.114286 1.257143 12.114286-10.971429 17.371428-19.2 10.171429-15.657143 21.714286-33.371429 40.457143-33.371429h0.914286c14.742857 0.457143 22.971429 11.885714 29.6 21.028572 6.057143 8.457143 10.171429 13.714286 16.114285 13.714286h0.114286c9.371429 0 17.028571-8.114286 25.142857-16.8 9.485714-10.057143 20.228571-21.485714 35.885715-19.885715 12.914286 1.257143 25.6 15.771429 38.971428 31.085715 6.628571 7.542857 18.742857 21.371429 23.885714 22.971428 0.114286-0.228571 0.342857-0.457143 0.457143-0.914286 2.171429-4.342857 7.314286-6.057143 11.657143-4 4.342857 2.171429 6.057143 7.314286 3.885714 11.657143-3.885714 7.771429-9.371429 10.057143-13.371428 10.628572-12.914286 1.714286-25.257143-12.457143-39.657143-28.914286-8.571429-9.828571-21.6-24.685714-27.657143-25.257143-6.628571-0.685714-12.457143 5.028571-21.485714 14.628572-9.828571 10.4-20.914286 22.285714-37.714286 22.285714h-0.342857c-15.085714-0.114286-23.314286-11.657143-30.057143-20.914286-6.057143-8.457143-10.171429-13.6-16-13.828571-9.485714-0.228571-18.4 13.371429-26.285714 25.485714-8.457143 12.685714-17.828571 27.085714-31.085714 27.085714z" fill="#FADD60" p-id="3034"></path><path d="M240 478.514286c-1.6 0-3.314286-0.457143-4.685714-1.371429-4-2.628571-5.142857-8-2.514286-12 5.257143-8 9.028571-22.171429 12.685714-35.885714 5.6-21.028571 10.4-39.085714 21.828572-45.485714 4.342857-2.4 9.257143-2.971429 14.171428-1.485715 15.2 4.457143 23.657143 18.057143 31.085715 30.057143 6.514286 10.514286 12.114286 19.542857 20 20.571429 5.942857 0.8 16.228571-9.028571 25.142857-17.6 13.714286-13.142857 29.371429-28.114286 48.571428-28.114286 18.514286 0 29.828571 10.285714 39.771429 19.428571 9.828571 9.028571 18.4 16.8 33.714286 15.542858 7.085714-0.571429 14.971429-8.114286 23.314285-16.114286 12-11.542857 25.6-24.685714 44.571429-24.114286 14.742857 0.457143 22.971429 11.885714 29.6 21.028572 6.057143 8.457143 10.171429 13.714286 16.114286 13.714285h0.114285c9.028571 0 17.828571-10.628571 26.4-20.914285 10.628571-12.914286 21.714286-26.171429 37.6-24.571429 15.085714 1.485714 20.228571 16.228571 24.342857 28.114286 7.2 20.685714 11.771429 22.857143 20.457143 21.6 1.714286-1.257143 5.485714-5.142857 8.342857-8.114286 12.228571-12.571429 30.628571-31.657143 49.828572-25.714286 15.657143 4.914286 25.714286 24.114286 31.657143 60.571429 0.8 4.685714-2.4 9.142857-7.2 9.942857-4.685714 0.8-9.142857-2.4-9.942857-7.2-6.4-38.742857-15.885714-45.6-19.657143-46.857143-8.914286-2.742857-23.428571 12.228571-32.114286 21.257143-7.314286 7.542857-11.771429 12.114286-17.142857 13.028571-27.428571 4.457143-35.314286-17.942857-40.571429-32.8-3.428571-9.714286-5.942857-16.228571-9.714285-16.571428-6.628571-0.685714-14.742857 9.028571-22.514286 18.4-10.514286 12.685714-22.514286 27.2-39.771429 27.2h-0.228571c-15.085714-0.114286-23.314286-11.657143-30.057143-20.914286-6.057143-8.457143-10.171429-13.6-16-13.828571h-0.571429c-11.428571 0-21.142857 9.371429-31.428571 19.314285-10.171429 9.714286-20.685714 19.771429-33.942857 20.914286-22.857143 1.828571-36.228571-10.285714-46.857143-20-9.028571-8.342857-16.228571-14.857143-28-14.857143-12.228571 0-24.571429 11.885714-36.571429 23.314286-13.028571 12.457143-25.257143 24.228571-39.542857 22.285714-16-2.171429-24.685714-16.228571-32.342857-28.571428-6.4-10.285714-12.457143-20-21.257143-22.628572-0.457143-0.114286-0.571429-0.114286-0.685714 0-5.028571 2.857143-10.171429 22.171429-13.6 34.857143-4 15.085714-8.114286 30.628571-14.857143 40.914286-1.942857 2.285714-4.685714 3.657143-7.542857 3.657143z" fill="#FAD53E" p-id="3035"></path><path d="M470.285714 506.285714c-13.257143 0-22.628571-14.4-30.971428-27.2-7.885714-12.114286-16.8-25.714286-26.285715-25.485714-5.828571 0.114286-9.942857 5.371429-16 13.828571-6.628571 9.257143-14.971429 20.8-30.057142 20.914286h-0.228572c-17.942857 0-28.114286-15.771429-37.142857-29.714286-6.171429-9.6-12.571429-19.542857-18.514286-18.971428-6.628571 0.685714-12.685714 12.685714-17.942857 23.314286-7.2 14.4-14.742857 29.371429-29.257143 32.114285-9.142857 1.714286-21.6-6.628571-29.6-19.885714-6.971429-11.428571-19.542857-42.4 12-82.057143 2.971429-3.771429 8.457143-4.342857 12.228572-1.371428 3.771429 2.971429 4.342857 8.457143 1.371428 12.228571-19.885714 24.914286-18.514286 44.228571-13.828571 56.114286 4.342857 11.2 12.228571 17.028571 15.085714 17.828571 5.942857-1.714286 11.542857-12.914286 16.457143-22.742857 7.314286-14.628571 15.657143-31.2 31.771429-32.8 16.571429-1.714286 26.285714 13.485714 34.857142 26.742857 8.457143 13.142857 14.628571 21.828571 22.514286 21.828572h0.114286c5.942857 0 9.942857-5.257143 16.114286-13.714286 6.628571-9.142857 14.742857-20.571429 29.6-21.028572 19.314286-0.571429 30.971429 17.485714 41.371428 33.371429 5.257143 8.114286 13.257143 20.457143 17.371429 19.2 3.2-1.028571 5.828571-8 8.571428-15.428571 4-10.857143 9.028571-24.342857 21.028572-34.857143 26.971429-23.657143 60-6.742857 70.742857-1.257143 19.771429 10.171429 30.742857 24.914286 38.857143 35.657143 8.228571 10.971429 11.885714 15.085714 17.142857 14.4 7.885714-1.028571 13.485714-10.057143 20-20.571429 7.428571-12 16-25.714286 31.085714-30.057143 15.314286-4.457143 25.6 9.371429 34.742857 21.6 14.628571 19.657143 20 21.828571 27.771429 17.828572 4.228571-2.171429 9.485714-0.457143 11.657143 3.771428 2.171429 4.228571 0.457143 9.485714-3.771429 11.657143-23.657143 12.114286-39.314286-8.914286-49.6-22.857143-5.142857-6.971429-12.228571-16.342857-15.885714-15.314285-8.8 2.628571-14.857143 12.342857-21.257143 22.628571-7.657143 12.457143-16.457143 26.4-32.342857 28.571429-15.885714 2.171429-24.8-9.714286-33.371429-21.257143-7.771429-10.514286-16.685714-22.285714-32.8-30.628572-29.485714-15.2-42.971429-8.571429-51.428571-1.257143-8.685714 7.657143-12.685714 18.4-16.228572 27.885715-4.114286 10.971429-8.342857 22.4-19.657142 25.942857-2.285714 0.685714-4.342857 1.028571-6.285715 1.028571z m-208.8-28.228571z" fill="#FADD60" p-id="3036"></path><path d="M522.628571 506.285714c-13.257143 0-22.628571-14.4-30.971428-27.2-7.885714-12.114286-16.685714-25.714286-26.285714-25.485714-5.828571 0.114286-9.942857 5.371429-16 13.828571-6.628571 9.257143-14.971429 20.8-30.057143 20.914286h-0.228572c-17.942857 0-28.114286-15.771429-37.142857-29.714286-6.171429-9.6-12.571429-19.542857-18.514286-18.971428-6.628571 0.685714-12.685714 12.685714-17.942857 23.314286-7.2 14.4-14.742857 29.371429-29.257143 32.114285-10.514286 2.057143-16.228571-9.942857-29.828571-38.628571-5.485714-11.657143-11.771429-25.028571-17.828571-35.314286-6.4-10.971429-10.285714-14.742857-12-16.114286-0.685714 1.028571-1.714286 2.971429-2.742858 6.514286-1.371429 4.571429-6.285714 7.085714-10.857142 5.714286-4.571429-1.371429-7.085714-6.285714-5.714286-10.857143 5.714286-18.4 14.742857-19.085714 17.714286-19.314286 16.114286-1.142857 28.571429 22.628571 47.2 61.942857 4.457143 9.485714 10.4 21.942857 13.942857 27.542858 4.914286-3.657143 9.6-13.028571 13.828571-21.371429 7.314286-14.628571 15.657143-31.2 31.771429-32.8 16.571429-1.714286 26.285714 13.485714 34.857143 26.742857 8.457143 13.142857 14.628571 21.828571 22.514285 21.828572h0.114286c5.942857 0 9.942857-5.257143 16.114286-13.714286 6.628571-9.142857 14.742857-20.571429 29.6-21.028572 19.314286-0.571429 30.971429 17.485714 41.371428 33.371429 5.257143 8.114286 13.257143 20.457143 17.371429 19.2 3.2-1.028571 5.828571-8 8.571428-15.428571 4-10.857143 9.028571-24.342857 21.028572-34.857143 26.971429-23.657143 59.885714-6.742857 70.742857-1.257143 19.771429 10.171429 30.742857 24.914286 38.857143 35.657143 8.228571 10.971429 11.885714 15.085714 17.142857 14.4 7.885714-1.028571 13.485714-10.057143 20-20.571429 7.428571-12 16-25.714286 31.085714-30.057143 4.228571-1.257143 12.342857-1.828571 20 7.885715 3.657143 4.685714 6.4 10.628571 9.142857 16.342857 1.371429 2.971429 3.542857 7.542857 5.257143 10.171428 1.828571-2.4 5.142857-7.885714 9.942857-19.885714 1.714286-4.457143 6.742857-6.628571 11.314286-4.914286 4.457143 1.714286 6.628571 6.742857 4.914286 11.314286-9.028571 23.085714-16.342857 32.114286-25.828572 32.457143-10.742857 0.342857-16-10.857143-21.142857-21.6-2.057143-4.342857-6.171429-13.142857-8.8-14.857143-8.685714 2.742857-14.628571 12.342857-20.914285 22.514286-7.657143 12.457143-16.457143 26.4-32.342858 28.571428-15.885714 2.171429-24.8-9.714286-33.371428-21.257143-7.771429-10.514286-16.685714-22.285714-32.8-30.628571-29.485714-15.2-42.971429-8.571429-51.428572-1.257143-8.685714 7.657143-12.685714 18.4-16.228571 27.885714-4.114286 10.971429-8.342857 22.4-19.657143 25.942858-2.4 0.571429-4.457143 0.914286-6.514286 0.914285z" fill="#FAD53E" p-id="3037"></path><path d="M825.142857 397.828571c-12.228571 41.485714-52.685714 96.914286-82.4 113.257143-1.714286 0.914286-3.657143-0.8-2.971428-2.628571l40.228571-108.685714c2.971429-7.885714-1.485714-16.685714-9.485714-19.085715-7.085714-2.057143-14.628571 1.371429-17.485715 8.228572-13.828571 31.885714-51.2 116.914286-57.714285 114.971428-6.514286-1.942857 8.342857-93.6 14.057143-127.885714 1.257143-7.314286-3.2-14.285714-10.285715-16.457143-8.114286-2.4-16.571429 2.514286-18.4 10.742857l-25.371428 113.142857c-0.457143 1.942857-2.971429 2.285714-4 0.571429-16-29.828571-19.771429-98.4-7.542857-139.885714 20.685714-69.942857 70.628571-89.485714 120.685714-74.628572s81.371429 58.4 60.685714 128.342857z" fill="#FFF3E0" p-id="3038"></path><path d="M775.2 307.542857l-40.457143-12 57.028572-217.028571c5.142857-19.428571 22.057143-31.771429 37.257142-27.314286 15.2 4.457143 22.628571 24.114286 16.342858 43.2l-70.171429 213.142857z" fill="#FFF3E0" p-id="3039"></path><path d="M729.028571 558.057143c-12.342857 14.742857-34.4 16.685714-49.142857 4.342857l-227.428571-190.514286c-14.742857-12.342857-16.685714-34.4-4.342857-49.142857 12.342857-14.742857 34.4-16.685714 49.142857-4.342857l227.428571 190.514286c14.857143 12.342857 16.8 34.285714 4.342857 49.142857z" fill="#D66C6C" p-id="3040"></path><path d="M798.857143 558.057143c-12.342857 14.742857-34.4 16.685714-49.142857 4.342857L522.285714 371.885714c-14.742857-12.342857-16.685714-34.4-4.342857-49.142857 12.342857-14.742857 34.4-16.685714 49.142857-4.342857l227.428572 190.514286c14.742857 12.342857 16.685714 34.285714 4.342857 49.142857z" fill="#E57373" p-id="3041"></path><path d="M512 469.6H163.428571l95.428572 479.314286s6.057143 24.685714 253.142857 24.685714 253.142857-24.685714 253.142857-24.685714L860.571429 469.6H512z" fill="#AB47BC" p-id="3042"></path><path d="M233.828571 706.857143c0-106.057143 122.628571-111.542857 273.942858-111.542857S781.714286 600.8 781.714286 706.857143s-44.114286 179.428571-273.942857 179.428571-273.942857-73.371429-273.942858-179.428571z" fill="#BA68C8" p-id="3043"></path><path d="M512 834.171429c-35.428571 0-64.228571-28.8-64.228571-64.228572 0-7.085714 5.714286-12.8 12.8-12.8 7.085714 0 12.8 5.714286 12.8 12.8 0 21.371429 17.257143 38.514286 38.514285 38.514286s38.514286-17.142857 38.514286-38.514286c0-7.085714 5.714286-12.8 12.8-12.8 7.085714 0 12.8 5.714286 12.8 12.8 0.228571 35.542857-28.571429 64.228571-64 64.228572z" fill="#25467A" p-id="3044"></path><path d="M383.542857 667.2m-38.514286 0a38.514286 38.514286 0 1 0 77.028572 0 38.514286 38.514286 0 1 0-77.028572 0Z" fill="#25467A" p-id="3045"></path><path d="M640.457143 667.2m-38.514286 0a38.514286 38.514286 0 1 0 77.028572 0 38.514286 38.514286 0 1 0-77.028572 0Z" fill="#25467A" p-id="3046"></path><path d="M332.228571 731.428571h-51.314285c-14.171429 0-25.714286 11.428571-25.714286 25.714286s11.428571 25.714286 25.714286 25.714286h51.314285c14.171429 0 25.714286-11.428571 25.714286-25.714286 0-14.171429-11.542857-25.6-25.714286-25.714286zM743.085714 731.428571h-51.314285c-14.171429 0-25.714286 11.428571-25.714286 25.714286s11.428571 25.714286 25.714286 25.714286h51.314285c14.171429 0 25.714286-11.428571 25.714286-25.714286 0-14.171429-11.428571-25.6-25.714286-25.714286z" fill="#E1BEE7" p-id="3047"></path><path d="M873.828571 478.857143H150.171429c-13.028571 0-23.657143-8.914286-23.657143-19.885714 0-10.971429 10.628571-19.885714 23.657143-19.885715h723.657142c13.028571 0 23.657143 8.914286 23.657143 19.885715 0 10.971429-10.628571 19.885714-23.657143 19.885714z" fill="#FAFAFA" p-id="3048"></path></svg>